<svg width="512" height="512" viewBox="0 0 512 512" fill="none" xmlns="http://www.w3.org/2000/svg">
  <defs>
    <linearGradient id="bg" x1="0" y1="0" x2="512" y2="512" gradientUnits="userSpaceOnUse">
      <stop offset="0" stop-color="#0c0a1d"/>
      <stop offset="1" stop-color="#1a1333"/>
    </linearGradient>
    <linearGradient id="glow" x1="160" y1="140" x2="352" y2="372" gradientUnits="userSpaceOnUse">
      <stop offset="0" stop-color="#a78bfa"/>
      <stop offset="1" stop-color="#6d28d9"/>
    </linearGradient>
    <linearGradient id="ring" x1="180" y1="180" x2="332" y2="332" gradientUnits="userSpaceOnUse">
      <stop offset="0" stop-color="#c4b5fd"/>
      <stop offset="1" stop-color="#7c3aed"/>
    </linearGradient>
    <filter id="glow-filter" x="-50%" y="-50%" width="200%" height="200%">
      <feGaussianBlur stdDeviation="12" result="blur"/>
      <feMerge>
        <feMergeNode in="blur"/>
        <feMergeNode in="SourceGraphic"/>
      </feMerge>
    </filter>
  </defs>

  <!-- Background -->
  <rect width="512" height="512" rx="96" fill="url(#bg)"/>

  <!-- Subtle grid lines (memory/data feel) -->
  <g opacity="0.06" stroke="#a78bfa" stroke-width="1">
    <line x1="128" y1="0" x2="128" y2="512"/>
    <line x1="256" y1="0" x2="256" y2="512"/>
    <line x1="384" y1="0" x2="384" y2="512"/>
    <line x1="0" y1="128" x2="512" y2="128"/>
    <line x1="0" y1="256" x2="512" y2="256"/>
    <line x1="0" y1="384" x2="512" y2="384"/>
  </g>

  <!-- Vault body -->
  <rect x="136" y="164" width="240" height="200" rx="24" fill="url(#glow)" filter="url(#glow-filter)"/>
  <rect x="136" y="164" width="240" height="200" rx="24" fill="url(#glow)"/>

  <!-- Vault door inset -->
  <rect x="160" y="188" width="192" height="152" rx="16" fill="#0c0a1d" opacity="0.6"/>

  <!-- Lock ring -->
  <circle cx="256" cy="264" r="44" stroke="url(#ring)" stroke-width="6" fill="none"/>
  <circle cx="256" cy="264" r="32" fill="#0c0a1d"/>

  <!-- Keyhole -->
  <circle cx="256" cy="258" r="8" fill="#c4b5fd"/>
  <rect x="252" y="262" width="8" height="18" rx="3" fill="#c4b5fd"/>

  <!-- Memory nodes (floating data points) -->
  <g filter="url(#glow-filter)">
    <circle cx="176" cy="218" r="6" fill="#e9d5ff"/>
    <circle cx="336" cy="218" r="6" fill="#e9d5ff"/>
    <circle cx="176" cy="310" r="6" fill="#e9d5ff"/>
    <circle cx="336" cy="310" r="6" fill="#e9d5ff"/>
  </g>

  <!-- Connection lines from nodes to lock -->
  <g stroke="#a78bfa" stroke-width="2" opacity="0.4">
    <line x1="182" y1="222" x2="230" y2="250"/>
    <line x1="330" y1="222" x2="282" y2="250"/>
    <line x1="182" y1="306" x2="230" y2="278"/>
    <line x1="330" y1="306" x2="282" y2="278"/>
  </g>

  <!-- Echo waves (top) -->
  <g stroke="#a78bfa" stroke-width="2.5" fill="none" opacity="0.3">
    <path d="M208 140 Q256 120 304 140"/>
    <path d="M224 124 Q256 108 288 124"/>
  </g>
</svg>
